<svg xmlns="http://www.w3.org/2000/svg" fill="none" viewBox="0 0 24 24" height="24" width="24">
<rect fill="#0C0E11" rx="4.5" height="24" width="24"></rect>
<path fill="#FCD535" d="M7.29565 12.0001L5.37043 13.9254L3.42847 12.0001L5.37043 10.0582L7.29565 12.0001ZM11.9999 7.2959L15.3146 10.6106L17.2566 8.66867L11.9999 3.42871L6.7432 8.68541L8.68516 10.6274L11.9999 7.2959ZM18.6294 10.0582L16.7041 12.0001L18.6461 13.9421L20.5881 12.0001L18.6294 10.0582ZM11.9999 16.7044L8.68516 13.3729L6.7432 15.3149L11.9999 20.5716L17.2566 15.3149L15.3146 13.3729L11.9999 16.7044ZM11.9999 13.9254L13.9419 11.9834L11.9999 10.0582L10.0579 12.0001L11.9999 13.9254Z"></path>
</svg>
